<?xml version="1.0" encoding="UTF-8"?>
<svg id="Layer_1" data-name="Layer 1" xmlns="http://www.w3.org/2000/svg" version="1.1" viewBox="0 0 91 91">
  <defs>
    <style>
      .cls-1 {
        fill: #000;
      }

      .cls-1, .cls-2 {
        stroke-width: 0px;
      }

      .cls-3 {
        fill: none;
        stroke: #222222;
        stroke-width: 1.5px;
      }

      .cls-2 {
        fill: #222222;
      }
    </style>
  </defs>
  <circle class="cls-3" cx="23.5" cy="45.5" r="7.7"/>
  <circle class="cls-3" cx="45.5" cy="45.5" r="7.7"/>
  <circle class="cls-3" cx="67.5" cy="45.5" r="7.7"/>
  <path class="cls-2" d="M27,36.2l-1.1-1.1,1.1-1.1h0c.3-.3.7-.6,1.1-.8l.6-.4.8,1.2-.6.4c-.5.3-1,.7-1.4,1.2l-.5.5ZM40,35.1l-.6-.4c-.5-.4-1-.7-1.6-.9h0l-.7-.3.6-1.4,1.4.6h0c.4.2.8.5,1.2.8l.6.4-.9,1.2ZM29.9,33.9l-.6-1.4,1.4-.6h0c.4-.1.9-.2,1.4-.3h.7c0-.1.3,1.3.3,1.3h-.7c-.6.2-1.2.4-1.8.7l-.7.3ZM36.8,33.3l-.7-.2c-.6-.1-1.2-.2-1.8-.2h-.8s0-1.5,0-1.5h1.5c.5,0,.9.2,1.4.3l.7.2-.3,1.5Z"/>
  <path class="cls-2" d="M57.6,59.8h-.7s0,0,0,0h-.8c-.5,0-.9-.2-1.4-.2l-.7-.2.3-1.5.7.2c.6.1,1.2.2,1.8.2h.8s0,1.5,0,1.5ZM58.3,59.7l-.3-1.5h.7c.6-.3,1.2-.4,1.8-.7l.7-.3.6,1.4-1.4.6h0c-.5.1-.9.2-1.4.3h-.7ZM53.4,59.2l-1.4-.6h0c-.4-.2-.8-.5-1.2-.8l-.6-.4.9-1.2.6.4c.5.4,1,.7,1.6.9l.7.3-.6,1.4ZM62.3,58.4l-.8-1.2.6-.4c.5-.3,1-.7,1.4-1.2l.5-.5,1.1,1.1-1.1,1.1h0c-.4.3-.7.6-1.1.8l-.6.4Z"/>
  <path class="cls-1" d="M23.1,47.7v-5.1h-.2l-.7,2.4h-1.3c0,0,.8-3.1.8-3.1h2.6v5.7h1.7v1.3h-5v-1.3h2.1Z"/>
  <path class="cls-1" d="M48,47.7v1.3h-4.9v-1.4c0-.4,0-.7.2-.9,0-.3.3-.5.5-.7s.5-.3.7-.4c.3,0,.6-.2,1-.3.3,0,.5,0,.6-.2.2,0,.3-.2.4-.3,0,0,.2-.2.2-.3v-.4c0-.3,0-.5-.3-.7s-.5-.3-.8-.3-.7,0-.9.4c-.2.2-.3.5-.3.9v.4h-1.3v-.6c0-.3,0-.6.2-.9,0-.3.3-.6.5-.8s.5-.4.8-.5.7-.2,1.1-.2.8,0,1.1.2c.3,0,.6.3.8.5s.4.4.5.7.2.5.2.8h0c0,.7-.2,1.2-.5,1.6-.3.4-.9.7-1.6.8-.3,0-.6.2-.8.2s-.4.2-.5.2-.2.2-.2.3v.4h0c0,0,3.6,0,3.6,0h-.3Z"/>
  <path class="cls-1" d="M66.8,46v-2.1l1.7-.5v-.2h-3.5v-1.3h4.6v2.2l-1.9.5v.2h.2c.2,0,.5,0,.7,0,.2,0,.5.2.6.3.2.2.3.4.4.6,0,.2.2.5.2.8h0c0,.4,0,.7-.2,1,0,.3-.3.5-.5.7s-.5.3-.8.5c-.3,0-.6.2-1,.2s-.8,0-1.1-.2c-.3,0-.6-.3-.8-.5-.2-.2-.4-.5-.5-.8s-.2-.6-.2-.9v-.4h1.3v.4c0,.3,0,.6.3.8.2.2.5.4.9.4s.6,0,.8-.3c.2-.2.3-.4.3-.7s0-.5-.3-.7c-.2,0-.5-.2-.8-.2h-.8.4Z"/>
</svg>